<svg width="70" height="70" viewBox="0 0 70 70" fill="none" xmlns="http://www.w3.org/2000/svg">
<path d="M35 7.7C29.6006 7.7 24.3224 9.30111 19.8329 12.3009C15.3435 15.3006 11.8444 19.5643 9.77808 24.5527C7.71181 29.5412 7.17118 35.0303 8.22456 40.326C9.27793 45.6217 11.878 50.486 15.696 54.304C19.514 58.122 24.3783 60.7221 29.674 61.7754C34.9697 62.8288 40.4588 62.2882 45.4473 60.2219C50.4357 58.1556 54.6994 54.6565 57.6991 50.1671C60.6989 45.6776 62.3 40.3994 62.3 35C62.2907 27.7624 59.4115 20.8239 54.2938 15.7062C49.176 10.5885 42.2376 7.70926 35 7.7ZM43.4 37.1H31.668L34.384 39.816C34.7773 40.2098 34.9982 40.7435 34.9982 41.3C34.9982 41.8565 34.7773 42.3903 34.384 42.784C33.9902 43.1773 33.4565 43.3982 32.9 43.3982C32.3435 43.3982 31.8097 43.1773 31.416 42.784L25.116 36.484C25.0182 36.3846 24.9292 36.2768 24.85 36.162L24.766 36.008C24.731 35.938 24.689 35.875 24.661 35.805C24.633 35.735 24.619 35.665 24.598 35.595C24.5761 35.5354 24.5575 35.4746 24.542 35.413C24.486 35.1405 24.486 34.8595 24.542 34.587C24.5575 34.5254 24.5761 34.4646 24.598 34.405C24.598 34.335 24.598 34.265 24.661 34.195C24.724 34.125 24.731 34.062 24.766 33.992L24.85 33.838C24.9292 33.7232 25.0182 33.6154 25.116 33.516L31.416 27.216C31.8141 26.8451 32.3406 26.6431 32.8847 26.6527C33.4287 26.6623 33.9478 26.8827 34.3325 27.2675C34.7173 27.6522 34.9377 28.1713 34.9473 28.7153C34.9569 29.2594 34.7549 29.7859 34.384 30.184L31.668 32.9H43.4C43.957 32.9 44.4911 33.1213 44.8849 33.5151C45.2788 33.9089 45.5 34.443 45.5 35C45.5 35.557 45.2788 36.0911 44.8849 36.4849C44.4911 36.8788 43.957 37.1 43.4 37.1Z" fill="#2200B8"/>
</svg>
