<svg xmlns="http://www.w3.org/2000/svg" version="1.1" xmlns:xlink="http://www.w3.org/1999/xlink" xmlns:svgjs="http://svgjs.dev/svgjs" viewBox="0 0 7.954438003594128 7.243240859455106"><g transform="matrix(1,0,0,1,3.9674688809330663,5.947009088433215)"><g><path d=" M -1.557575107526221 0.10789495292426247 L -1.6875420276217874 0.22055639122891318 L -1.7491128136720036 0.14952795815342917 L -2.0762969787963077 0.43314657900176495 L -2.0147261927460915 0.504175012077249 L -2.144693112841658 0.6168364503818997 L -2.419141616618685 0.30023098805607196 L -2.235445390271362 -0.05884100531817177 L -2.6156441252895877 0.07354449951729314 L -2.871752394923997 -0.22190355721158195 L -2.7417854748284305 -0.3345649955162327 L -2.6802146887782143 -0.2635365624407487 L -2.3530305236539104 -0.5471551832890845 L -2.4146013097041266 -0.6181836163645685 L -2.2846343896085597 -0.7308450546692192 L -2.018045986178369 -0.42330705188494255 L -2.1480129062739355 -0.31064561358029186 L -2.1892784330948247 -0.35824977617343545 L -2.408408705348978 -0.1682973511248964 L -1.9466500746946076 -0.3409442943825196 L -1.8542938956192836 -0.2344016447692936 L -2.078736228348114 0.22880850114640292 L -1.8512941181808729 0.03165098411326417 L -1.9023847704353074 -0.027287502906818334 L -1.7724178503397408 -0.13994894121146906 L -1.557575107526221 0.10789495292426247 M -2.2862389087546937 -0.7939847191895792 L -2.449901835123317 -0.7410843738933646 L -2.473583966447785 -0.8143520793025737 L -2.926808928001892 -0.8086833736056813 L -2.8954377930006485 -0.7116274521545213 L -3.0591007193692716 -0.6587271068583066 L -3.207959830551643 -1.1192669694304778 L -2.6854929077797145 -1.469955313418743 L -2.7091750391041827 -1.5432230188279523 L -2.54551211273556 -1.5961233641241668 L -2.4111083284655264 -1.1803053477108634 L -2.574771254834149 -1.1274050024146487 L -2.594147544099623 -1.1873513068403652 L -2.666665658270409 -1.1418417131582321 L -2.61253507238591 -0.9743726722228971 L -2.5267918718910707 -0.9789665343128746 L -2.555394965568675 -1.0674586979889322 L -2.3917320392000523 -1.120359043285147 L -2.2862389087546937 -0.7939847191895792 M -2.7325044557806946 -0.9618687909104684 L -2.7718721546057843 -1.0836644570452574 L -2.98080504294211 -0.9562280094667075 L -2.7325044557806946 -0.9618687909104684 M -2.5399621244748976 -1.7921309576215323 L -2.7159330865279308 -1.7953279115045062 L -2.7144799256720336 -1.8753147124377032 L -3.1434091456763027 -1.8831072875274526 L -3.144662496914514 -1.8141186717225701 L -3.011066060076082 -1.790688092043978 L -3.0135545980418064 -1.653710695445878 L -3.319504111611285 -1.659269035719685 L -3.306225854290523 -2.390148429246773 L -3.0002763407210447 -2.3845900889729656 L -3.0027648786867687 -2.247612692374866 L -3.1371242249745466 -2.22905020156353 L -3.1384139052341555 -2.1580619157353174 L -2.7094846852298864 -2.150269340645568 L -2.708031524373989 -2.230256141578765 L -2.532060562320956 -2.227059187695791 L -2.5399621244748976 -1.7921309576215323 M -2.4668489487732623 -2.597471276290533 L -2.6329414593723746 -2.6556887815864827 L -2.6064789569651245 -2.7311853773133516 L -3.01132945155046 -2.873090546472228 L -3.034153359876713 -2.8079747326578035 L -2.91464296891611 -2.7438321847473572 L -2.9599600042885252 -2.614544264565094 L -3.2487344829437994 -2.7157633362728237 L -3.006933367197556 -3.40561347972709 L -2.7181588885422814 -3.30439440801936 L -2.7634759239146964 -3.1751064878370965 L -2.8968791286391053 -3.1996133229909365 L -2.9203645995255396 -3.1326100942833404 L -2.515514104940204 -2.990704925124464 L -2.4890516025329545 -3.066201520851333 L -2.3229590919338423 -3.007984015555384 L -2.4668489487732623 -2.597471276290533 M -2.2385504266176217 -3.232301869287958 L -2.3724055493328327 -3.3403148598163934 L -2.323422914093193 -3.4010166015128265 L -2.6603954032541597 -3.6729330253431316 L -2.709378038493799 -3.612231283646699 L -2.84323316120901 -3.7202442741751343 L -2.5990982124684594 -4.02438096516037 L -2.4644648622956025 -3.915739992128863 L -2.5033997774860848 -3.867489889754775 L -2.4037866629073235 -3.787108129361521 L -2.2863539348328037 -3.9326366639414303 L -2.385967049411565 -4.0130184243346845 L -2.4249019646020478 -3.964768321960597 L -2.5595353147749047 -4.073409294992104 L -2.3138439111190614 -4.376290020971196 L -2.179988788403851 -4.268277030442761 L -2.22897142364349 -4.2075752887463285 L -1.8919989344825239 -3.9356588649160225 L -1.8430162992428845 -3.996360606612455 L -1.7091611765276737 -3.88834761608402 L -1.9540743527258704 -3.584838907601856 L -2.087929475441081 -3.6928518981302916 L -2.0489945602505983 -3.741102000504379 L -2.156389949405826 -3.8277635859283565 L -2.2738226774803456 -3.6822350513484468 L -2.1664272883251185 -3.5955734659244696 L -2.127492373134636 -3.6438235682985574 L -1.9936372504194253 -3.535810577770122 L -2.2385504266176217 -3.232301869287958 M -1.6042548411720678 -3.9410582166669013 L -1.702584860688849 -4.08217946688043 L -1.6385880146617835 -4.126770987358971 L -1.8861281219336803 -4.48203553004768 L -1.9501249679607457 -4.43744400956914 L -2.048454987477527 -4.578565259782669 L -1.7153431991828014 -4.810669840735071 L -1.6170131796660203 -4.669548590521542 L -1.6810100256930858 -4.624957070043002 L -1.4334699184211892 -4.269692527354292 L -1.3694730723941237 -4.314284047832833 L -1.2711430528773426 -4.1731627976193035 L -1.6042548411720678 -3.9410582166669013 M -1.1945734697649841 -4.225924393042466 L -1.2561424629625073 -4.386527192135891 L -1.168371165783542 -4.420175362836864 L -1.323367526565679 -4.824483572182523 L -1.4111388237446443 -4.7908354014815515 L -1.4727078169421675 -4.951438200574977 L -0.8601762110974733 -5.186259476956229 L -0.7495667988995972 -4.897734680910481 L -0.8662839494035405 -4.8529897730634435 L -0.9592100169933759 -4.964087684665279 L -1.0899332255577925 -4.913973387876598 L -1.0444723991852025 -4.795388762964591 L -0.9277552486812594 -4.840133670811628 L -0.8819364630458932 -4.72061530869559 L -0.9986536135498365 -4.675870400848553 L -0.9349368647756555 -4.5096651785309385 L -0.8042136562112391 -4.55977947531962 L -0.8172435304031878 -4.725067776111121 L -0.7005263798992445 -4.769812683958159 L -0.5820418639202899 -4.4607456694237175 L -1.1945734697649841 -4.225924393042466 M -0.3930925815400814 -4.562045038989046 Q -0.47488897918979533 -4.6483155399237805 -0.485396476062246 -4.8240016022892265 L -0.500978616310596 -5.0845360470470755 L -0.5798377011223589 -5.079819613791828 L -0.5901063912477084 -5.251512811103514 L -0.16686269554913347 -5.276826326296236 L -0.156594005423784 -5.10513312898455 L -0.22846557639146647 -5.100834607536729 L -0.2089431248159474 -4.774417889391838 Q -0.20607744385073357 -4.726503508746716 -0.18079846021324647 -4.697460902351014 Q -0.15551947657575937 -4.668418295955313 -0.10560866340375763 -4.671403380294077 Q -0.06368358033927612 -4.673910851138639 -0.040719824054377574 -4.700328949050634 Q -0.0177560677694788 -4.72674704696263 -0.020323240300816225 -4.769670346290551 L -0.04080091886473991 -5.112058524650483 L -0.12065821993994275 -5.10728238970846 L -0.13092691006529222 -5.278975587020146 L 0.1875040779720789 -5.298020425101463 L 0.1977727680974285 -5.126327227789777 L 0.12290654833942583 -5.12184960128163 L 0.1429663150959225 -4.786448936765779 Q 0.15132455124446276 -4.646698659884174 0.07373948824681309 -4.570430658732637 Q -0.0038455747508368 -4.494162657581102 -0.1376065540518015 -4.486162631553213 Q -0.31129618389036756 -4.475774538054313 -0.3930925815400814 -4.562045038989046 M 0.5830575365646793 -4.639540692101457 L 0.6712210516632564 -4.60693402705483 L 0.8214198385269764 -5.013048942349339 L 0.7454491499845854 -5.041146174995902 L 0.8054592888469955 -5.203404559166687 L 1.1778094536782202 -5.065693431256995 Q 1.2697246077171624 -5.031699248548809 1.3270144893220417 -4.993451771956242 Q 1.3843043709269207 -4.955204295363676 1.4057422317704904 -4.899296620376678 Q 1.4271800926140603 -4.84338894538968 1.3983891011367189 -4.765542437377107 Q 1.3782700950441191 -4.711143672741815 1.3319343040568072 -4.682434014548445 Q 1.2855985130694956 -4.653724356355075 1.2302364979523472 -4.653941800988603 Q 1.2839548568922519 -4.60315461842446 1.2983070304670987 -4.548268234742554 Q 1.3126592040419451 -4.493381851060647 1.2845619713953833 -4.417411162518256 Q 1.2502209092718077 -4.324558098744222 1.1588014163711948 -4.300794127741994 Q 1.067381923470582 -4.277030156739764 0.9341987410876249 -4.3262870337250945 L 0.5233942771176588 -4.478220217665763 L 0.5830575365646793 -4.639540692101457 M 1.0323108375773105 -4.78471807163854 Q 1.0848337827424204 -4.765292824376719 1.115065021660878 -4.770638120762808 Q 1.1452962605793358 -4.775983417148897 1.1602120754410907 -4.81631353575782 Q 1.1706184579027803 -4.844450827810557 1.1596843969883008 -4.868219427094454 Q 1.1487503360738214 -4.891988026378351 1.1206130440210842 -4.90239440884004 L 1.055897272299788 -4.926329088501927 L 1.006987274729847 -4.79408381585406 L 1.0323108375773105 -4.78471807163854 M 0.9225808606677105 -4.513970343730403 Q 0.977917535038094 -4.4935044582224135 1.013654156914943 -4.49787982755895 Q 1.0493907787917924 -4.5022551968954865 1.0674285083920543 -4.551026503120232 Q 1.0951788616232268 -4.626059281927532 1.0032637075842845 -4.660053464635717 Q 0.9826296934122771 -4.66768481177429 0.9625867095599713 -4.674031369762381 L 0.9056984854360681 -4.520214173207417 L 0.9225808606677105 -4.513970343730403 M 1.469963126027082 -4.092676755977757 Q 1.4349567832435883 -4.189169273640655 1.4578768147746937 -4.288983712248569 Q 1.480796846305799 -4.388798150856483 1.5554109817568078 -4.478918796609266 Q 1.6325760278215264 -4.572120490080092 1.7260412930409266 -4.612878853607928 Q 1.8195065582603265 -4.653637217135763 1.9188571269019485 -4.635645149144943 Q 2.0182076955435706 -4.617653081154121 2.112949912873419 -4.539212579782548 Q 2.207692130203267 -4.460772078410975 2.243907661155574 -4.366524079398569 Q 2.2801231921078813 -4.272276080386162 2.2575220244034893 -4.172846772743004 Q 2.2349208566990977 -4.073417465099844 2.157755810634379 -3.9802157716290183 Q 2.08314167518337 -3.8900951258762357 1.9893575461372563 -3.8489516313836445 Q 1.8955734170911427 -3.8078081368910532 1.7942433983511965 -3.8241934138848106 Q 1.6929133796112503 -3.840578690878568 1.598941424210913 -3.918381464596714 Q 1.504969468810576 -3.99618423831486 1.469963126027082 -4.092676755977757 M 1.8124740943636009 -4.04927760196319 Q 1.8748559982092632 -4.0807179911559235 1.9430928571259978 -4.1631360176135965 Q 2.00941653308245 -4.243243258282736 2.0272019840180135 -4.30706275166069 Q 2.044987434953577 -4.3708822450386435 2.0026230288304743 -4.405957265977152 Q 1.9602586227073713 -4.441032286915661 1.9008790275782161 -4.411650086822788 Q 1.8414994324490608 -4.382267886729915 1.7751757564926085 -4.302160646060775 Q 1.7069388975758737 -4.219742619603102 1.6876916617828255 -4.152589481818433 Q 1.668444425989777 -4.085436344033764 1.7092683082538578 -4.05163677840211 Q 1.7500921905179387 -4.0178372127704565 1.8124740943636009 -4.04927760196319 M 1.9869861638376096 -3.5968636862882692 L 2.1383485090411227 -3.684695573746598 L 2.177998332522311 -3.6163662864832977 L 2.550782165566392 -3.832683677880667 L 2.5121361350847273 -3.899283109770213 L 2.660903697227609 -3.985609307729256 L 2.8410845406421235 -3.6751002681403344 L 2.563448798746985 -3.233046657339183 L 2.8134129002545007 -3.378094745770366 L 2.7742649732730746 -3.4455591053467884 L 2.923032535415956 -3.531885303305832 L 3.0791223468419 -3.262892792687017 L 2.9303547846990186 -3.1765665947279738 L 2.891708754217354 -3.2431660266175197 L 2.368427503656637 -2.9395186442615833 L 2.219866139727121 -3.1955372395772397 L 2.4749820259524538 -3.610649133643723 L 2.2552903934856405 -3.4831674227042058 L 2.294438320467067 -3.415703063127783 L 2.143075975263554 -3.327871175669454 L 1.9869861638376096 -3.5968636862882692 M 2.461950855746529 -2.5949964390388542 Q 2.4715912387074153 -2.633383455286115 2.4941262405897344 -2.661759037926193 L 2.4375480232581563 -2.6679964511384724 L 2.4099900061580963 -2.7960650097057993 L 2.7179411202703707 -2.862330470671592 L 2.747602802797916 -2.724485686259431 Q 2.678191599299594 -2.7095496617242842 2.6486648190673727 -2.689898472215298 Q 2.619138038835151 -2.6702472827063115 2.627552700545093 -2.631142379326975 Q 2.634705162998544 -2.597903211454539 2.670301599828358 -2.5845936778405827 Q 2.7058980366581724 -2.5712841442266265 2.747935807790959 -2.580329905564814 L 3.066640770332551 -2.648909398500841 L 3.0468663153141873 -2.7408059214422815 L 3.2159950224298175 -2.7771993333377805 L 3.304769703469705 -2.364642602685781 L 3.135640996354075 -2.3282491907902823 L 3.1192324060196883 -2.404503752379988 L 2.754579182007376 -2.3260370319347796 Q 2.6441078299607508 -2.3022656126041934 2.5649332915217062 -2.351716522231462 Q 2.485758753082662 -2.4011674318587315 2.4619873337520763 -2.5116387839053567 Q 2.452310472785643 -2.5566094227915936 2.461950855746529 -2.5949964390388542 M 2.583903119520989 -1.9453463355977434 Q 2.644063167085259 -2.028514951535877 2.739513862573117 -2.0656284899131885 Q 2.834964558060975 -2.1027420282905 2.9514370376540393 -2.0916442133054125 Q 3.071891482361396 -2.0801669858422023 3.1581179452131467 -2.0257427531505448 Q 3.2443444080648978 -1.9713185204588874 3.285274151835573 -1.8790200585276782 Q 3.3262038956062474 -1.786721596596469 3.3145369619039764 -1.6642761693319654 Q 3.3028700282017045 -1.5418307420674622 3.245246135393633 -1.4589227389697883 Q 3.1876222425855616 -1.3760147358721149 3.0926692927369897 -1.3388537709350379 Q 2.997716342888418 -1.3016928059979609 2.8772618981810614 -1.3131700334611711 Q 2.760789418587997 -1.3242678484462587 2.67406521009696 -1.3787395076976816 Q 2.587341001605923 -1.4332111669491043 2.54396995619858 -1.5262445073184268 Q 2.500598910791237 -1.6192778476877492 2.5121709913739783 -1.7407277836736794 Q 2.523743071956719 -1.8621777196596097 2.583903119520989 -1.9453463355977434 M 2.7404193217138424 -1.6376128007804833 Q 2.8014748761956687 -1.6036684453304715 2.9079924430030006 -1.5935191615406905 Q 3.0115235359746135 -1.5836544371095016 3.07431179255562 -1.6047940878993727 Q 3.1371000491366265 -1.6259337386892443 3.1423169707108127 -1.6806857590107702 Q 3.1475338922849994 -1.7354377793322961 3.0898677041586486 -1.7680546575853775 Q 3.032201516032298 -1.8006715358384588 2.9286704230606855 -1.8105362602696478 Q 2.822152856253353 -1.8206855440594287 2.7557855270778098 -1.7988823879093416 Q 2.6894181979022664 -1.7770792317592545 2.6843909825671415 -1.7243181939948748 Q 2.679363767232016 -1.6715571562304954 2.7404193217138424 -1.6376128007804833 M 2.471753627012555 -1.0863514729104176 Q 2.586456934424937 -1.1175988931024996 2.7462081195368473 -1.0437371380777227 L 2.9831118656403053 -0.9342035127284797 L 3.016265721588927 -1.005910010591212 L 3.1723861979482937 -0.9337269318169983 L 2.9944465153886037 -0.5488718040473961 L 2.838326039029237 -0.62105488282161 L 2.868542211539373 -0.6864076403673915 L 2.571731771018949 -0.8236394238509259 Q 2.528163265988428 -0.8437835388576833 2.490616888778226 -0.8352530313470344 Q 2.453070511568024 -0.8267225238363856 2.432087058435985 -0.7813386644295929 Q 2.4144609578050726 -0.743216222527887 2.4268709954737697 -0.7104864048525391 Q 2.4392810331424672 -0.6777565871771912 2.4783111522323087 -0.6597108174836378 L 2.789644427762907 -0.5157643289978509 L 2.823217952774169 -0.5883785040487193 L 2.979338429133536 -0.5161954252745053 L 2.8454639981511276 -0.22664640225916788 L 2.689343521791761 -0.2988294810333818 L 2.720818701489819 -0.3669052701435709 L 2.415839166276172 -0.5079140751908723 Q 2.2887643599371525 -0.5666677439605812 2.258278304121983 -0.671103611366537 Q 2.227792248306813 -0.7755394787724925 2.2840279027006773 -0.897168221982697 Q 2.3570503196001726 -1.0551040527183355 2.471753627012555 -1.0863514729104176 M 2.2010911474364097 -0.3462896710988106 L 2.1467273739766988 -0.29035595912453493 L 2.457231185321075 0.011432680722322064 L 2.511594958780786 -0.04450103125195359 L 2.6349359646727786 0.07537805894125515 L 2.2871472088215508 0.43321039580232623 Q 2.2028136628135377 0.5199793592496 2.1279484451988835 0.5267023936471369 Q 2.0530832275842292 0.5334254280446737 1.9720510551086758 0.4546676536735539 Q 1.9175515408773305 0.40169782312306634 1.9177717739682587 0.34264529144672196 Q 1.9179920070591872 0.28359275977037757 1.9623163963183872 0.2179014474315384 Q 1.9056403069094539 0.260431682433365 1.8542745886506913 0.2537374320823975 Q 1.8029088703919287 0.24704318173143014 1.7584487403610942 0.203830951545506 L 1.7132715114587946 0.1599217499049702 L 1.6373016229061217 0.2380855268946631 L 1.511809320399734 0.11611552233761935 L 1.6212338387737675 0.0035309995176029396 Q 1.6742036693242552 -0.05096851471374253 1.7043747160410914 -0.06766306292597313 Q 1.7345457627579275 -0.08435761113820373 1.77901221242956 -0.06554312593131689 Q 1.8234786621011927 -0.046728640724430115 1.8987740436050253 0.0264533620097962 Q 1.9417999758929296 0.06827164928649698 1.9761867865303446 0.0745003934766666 Q 2.010573597167759 0.08072913766683643 2.0468161128075666 0.043439996350652654 L 2.0879374286296555 0.0011311629342134477 L 1.972484510323779 -0.1110812412582669 L 1.918120736864068 -0.05514752928399125 L 1.7947797309720757 -0.1750266194772 L 2.0777501415444175 -0.46616876129201934 L 2.2010911474364097 -0.3462896710988106 M 2.1208383159032964 0.1265406187842697 Q 2.083898828808877 0.16454685897191845 2.07940244954681 0.19643388726763222 Q 2.074906070284743 0.228320915563346 2.109326816115066 0.2617755453847066 Q 2.134425276616344 0.28616954629611535 2.1672369975928545 0.2811058552945245 Q 2.2000487185693656 0.2760421642929337 2.2293215196630563 0.24592401169140066 L 2.2829883216681552 0.1907073985885901 L 2.1675354033622787 0.07849499439610974 L 2.1208383159032964 0.1265406187842697" fill="url(#gradient-9dec717e-7bd8-4bac-b14e-d3ece36c1832)" fill-rule="nonzero"></path></g><g clip-path="url(#SvgjsClipPath1001)"><g clip-path="url(#SvgjsClipPath1000c75c93e3-6d70-4466-9168-595f4892058e)"><path d=" M -0.894549114681365 -2.4949674751876145 C -0.7221174565211752 -2.776600466633194 -0.42569666375204274 -2.9590996523305066 -0.09658799981436794 -2.9862530301613663 C -0.05606057295937905 -2.98946504144791 -0.01954786626162175 -3.011963243264246 0.0015431405252581687 -3.046718944619674 C 0.015501151044451156 -3.0695388557111016 0.021832428472891685 -3.096209637630955 0.019619929535185987 -3.122868205640606 C 0.01390326815283438 -3.1926594926958223 -0.04725911629500046 -3.244633426761166 -0.11705823127161663 -3.239013149662605 C -0.5270591203142019 -3.205342785083663 -0.8963891869280808 -2.978068143863404 -1.1112186414903007 -2.6272366630651627 C -1.1287298261055685 -2.5985223793854697 -1.1341148280670512 -2.56402707283554 -1.1261886204434948 -2.5313418023520917 C -1.1182624128199286 -2.498656531868643 -1.0976745056191026 -2.470459679257245 -1.0689554866970283 -2.452956261704603 C -1.0091816337853126 -2.4164712565356674 -0.9311536311328924 -2.435266734242117 -0.894549114681365 -2.4949674751876145 Z" fill="#80caff" transform="matrix(1,0,0,1,0,0)" fill-rule="nonzero"></path></g><g clip-path="url(#SvgjsClipPath1000c75c93e3-6d70-4466-9168-595f4892058e)"><path d=" M -1.1454826596833465 -2.1556655156179225 C -1.215387394848945 -2.1586902629694524 -1.2745531407944681 -2.104567692511667 -1.2777518475608882 -2.034670701373745 C -1.285821107850862 -1.8636686535138507 -1.2593661229689048 -1.6927930143209031 -1.1999649680233704 -1.5322367434217457 C -1.1883433167362372 -1.5006817618248243 -1.1646509289551759 -1.4750431767189474 -1.1341095879046255 -1.4609717116546483 C -1.1035682468540748 -1.4469002465903498 -1.0686849314171127 -1.4455509545075822 -1.0371478962788787 -1.4572212182969047 C -1.0226913157022186 -1.4625147831214447 -1.0093275355778628 -1.4704135030032548 -0.9977190812258622 -1.480525789494378 C -0.9580310623360982 -1.5151514892585953 -0.9438682313020131 -1.5706998672612915 -0.9621323711540413 -1.6201012753689716 C -1.0096638746615456 -1.7489449375769992 -1.0308049770232914 -1.8860300998011734 -1.0242988894564866 -2.0232073717576906 C -1.0227616324093987 -2.056853271601187 -1.0346748078344792 -2.089728185655483 -1.0574097991350158 -2.11457833467057 C -1.080144790435562 -2.1394284836856583 -1.111833060195873 -2.1542114902264275 -1.1454826596833465 -2.1556655156179225 Z" fill="#80caff" transform="matrix(1,0,0,1,0,0)" fill-rule="nonzero"></path></g><g clip-path="url(#SvgjsClipPath1000c75c93e3-6d70-4466-9168-595f4892058e)"><path d=" M -0.6495361904701047 -1.1797708503918578 C -0.6754397102384342 -1.2012801610657786 -0.7088506087466349 -1.2115729342920512 -0.742367437321342 -1.2083690328656864 C -0.7758842658960594 -1.2051651314393217 -0.8067401305573411 -1.1887290450494041 -0.8280995941047891 -1.162701826622898 C -0.8725183484581873 -1.108519799780081 -0.8647449234699167 -1.0286168769839468 -0.8107156436980364 -0.9840124523330851 C -0.5602762432595938 -0.7777524558096673 -0.24090089230494116 -0.6742053304649147 0.08292018373372145 -0.694279945553693 C 0.36661927622216384 -0.7104069356709175 0.6367454783405035 -0.8210784079064015 0.8502074440786385 -1.0086397154093332 C 1.084285788261154 -1.2126494843902775 1.2364558728323458 -1.4946116999192482 1.2785076714916488 -1.8022548426746248 C 1.2830600598098156 -1.835589222518514 1.2741837876150774 -1.869366729018625 1.2538315803927027 -1.896156517747794 C 1.2334793731703182 -1.9229463064769632 1.2033184222893394 -1.9405538388252261 1.1699839521044857 -1.9451055655823777 C 1.1006078658126404 -1.9545543114981543 1.0366752399431243 -1.9060624432207465 1.0270702438691877 -1.8367078168503486 C 0.9933090327253424 -1.5897238762089616 0.8711219086312321 -1.3633643963166762 0.6831703553875506 -1.1996112285734895 C 0.5119423686509168 -1.0490384286289576 0.29519936223896703 -0.960181335658552 0.06755176380890893 -0.9472290210376153 C -0.19228764071712656 -0.9312419383197681 -0.4485289555139662 -1.0143374968819017 -0.6495361904701047 -1.1797708503918578 Z" fill="#bfe4ff" transform="matrix(1,0,0,1,0,0)" fill-rule="nonzero"></path></g><g clip-path="url(#SvgjsClipPath1000c75c93e3-6d70-4466-9168-595f4892058e)"><path d=" M 0.4471643330174566 -3.410459211282934 C 0.581956893263071 -3.3841703130606926 0.7100883965600975 -3.331049930550391 0.8239425624857888 -3.2542555989323043 C 0.8820912860408332 -3.2152293610245253 0.9608646862012211 -3.2307077420868167 0.9999235676905078 -3.28883454376315 C 1.018785091814801 -3.3167883198607506 1.0257399822998132 -3.3511017829587493 1.0192516124110576 -3.384193651243775 C 1.0127632425223325 -3.417285519528802 0.9933656669203046 -3.446432016954736 0.9653446228596572 -3.4651934609332145 C 0.8234072207572991 -3.560876696177703 0.6636471644413366 -3.626982828356713 0.4956000499116695 -3.659566181785651 C 0.4625932820691676 -3.6660513909884545 0.42836267289566576 -3.6591275151713565 0.40047103293364206 -3.640324295180009 C 0.372579392971609 -3.621521075188661 0.35332241411221066 -3.5923861575479874 0.34695467686834514 -3.559356525636518 C 0.34394879316717963 -3.5442597641524056 0.34373531524880363 -3.5287399194866564 0.3463248235927452 -3.513566192499861 C 0.3552308679196745 -3.4615738954207407 0.39538289768122503 -3.4205190092747904 0.4471643330174464 -3.410459211282934 Z" fill="#80caff" transform="matrix(1,0,0,1,0,0)" fill-rule="nonzero"></path></g><g clip-path="url(#SvgjsClipPath1000c75c93e3-6d70-4466-9168-595f4892058e)"><path d=" M 0.39110739148841756 -2.9477689950217565 C 0.6766312142290642 -2.82524218456369 0.8915304260966082 -2.5802978222217643 0.9758631725623039 -2.2812582587740335 C 0.9881950082225885 -2.242503521667115 1.0184027095948145 -2.2120380354111777 1.0570512597881128 -2.199377332945075 C 1.082489937304382 -2.1910880336540695 1.1099033444298008 -2.1910880336540695 1.1353420219460904 -2.199377332945075 C 1.2019414104928239 -2.220902443846187 1.238564258269526 -2.29226065416804 1.217222947775054 -2.3589191676564223 C 1.0918191606016179 -2.74980611049836 0.8688511010366113 -3.0112582052029806 0.49509616729119976 -3.1794290297901497 C 0.4644267951188574 -3.193231470550945 0.429530099136342 -3.1942830912142584 0.3980852549420555 -3.1823524779023815 C 0.36664041074778986 -3.1704218645905047 0.34122407432551904 -3.1464866365910362 0.3274292253245119 -3.1158138489538043 C 0.31352907348801873 -3.0850931151258303 0.3124319622919143 -3.050102289956944 0.32438025146415805 -3.018571097561743 C 0.3363285406364014 -2.9870399051665415 0.3603389440565494 -2.961563209411834 0.39110739148841756 -2.9477689950217565 Z" fill="#80caff" transform="matrix(1,0,0,1,0,0)" fill-rule="nonzero"></path></g><g clip-path="url(#SvgjsClipPath1000c75c93e3-6d70-4466-9168-595f4892058e)"><path d=" M 1.3166137946658902 -0.9326794103710849 C 1.3048291752588037 -0.9425915171564023 1.291311547642069 -0.9502365577358498 1.2767440823199387 -0.9552281576378281 C 1.2269387391871924 -0.972216031636373 1.1718161867003376 -0.9567065498230267 1.1381763616863259 -0.9162402398777321 C 1.0503261107935664 -0.8106949914426247 0.9421589474177106 -0.7238828106184108 0.8201004575045934 -0.6609607072740631 C 0.757916074723822 -0.6287383292239697 0.7336119575347508 -0.5522170136194431 0.7658071051472342 -0.49001852827422265 C 0.7812810809315165 -0.46012263402629117 0.8080035623406334 -0.437603293051557 0.8400894951781579 -0.42741990788736617 C 0.872175428015662 -0.4172365227231758 0.9069933123237037 -0.420224274873096 0.9368752548021821 -0.43572517591686655 C 1.089004595147383 -0.5141847478767101 1.2237829720548383 -0.6224658501124396 1.3331789358143373 -0.7541160067363948 C 1.3546976701670355 -0.7799764398873203 1.3650443939852583 -0.8133352426546931 1.3619367577308577 -0.8468339072221887 C 1.3588291214764467 -0.8803325717896842 1.3425224560127598 -0.9112187673679442 1.3166137946658902 -0.9326794103710849 Z" fill="#80caff" transform="matrix(1,0,0,1,0,0)" fill-rule="nonzero"></path></g><g clip-path="url(#SvgjsClipPath1000c75c93e3-6d70-4466-9168-595f4892058e)"><path d=" M 1.732065015256509 -2.433493795488335 C 1.6648486226701746 -2.687602278235971 1.5427766042366868 -2.9238991353339765 1.3744343253666398 -3.125765530708402 C 1.3294111555733759 -3.179290061120626 1.2496258632700208 -3.186435852462322 1.19580793640438 -3.1417638039088276 C 1.1420591965873372 -3.0968825354136422 1.1348156346313343 -3.01694968830375 1.1796207072212725 -2.9631374149465763 C 1.3241267485523225 -2.789934209749052 1.4289346221415662 -2.5871766598372252 1.486674179079868 -2.3691227907212635 C 1.521954206690507 -2.234353669889937 1.5387987426829932 -2.095423327119227 1.5367475144906613 -1.9561279979055077 C 1.534284227243345 -1.7550027782905735 1.4921168046824356 -1.5563449870277624 1.4126664191960212 -1.3715611728143013 C 1.3849731604146434 -1.3071897962183332 1.4146915571842382 -1.2325554544259747 1.479052954445022 -1.204839010761031 C 1.4942665619084385 -1.1982306605152022 1.5106507066961585 -1.1947396597303683 1.5272367300289948 -1.1945724023686308 C 1.578652536328498 -1.1937435605428766 1.625466892262605 -1.2240820506458348 1.6457121311707494 -1.2713515166651703 C 1.738336817614321 -1.4866744506695637 1.787565723285705 -1.718157326685232 1.7905783845604435 -1.9525378342345459 C 1.7929950544630104 -2.114769248352961 1.7733097676016891 -2.276574254244235 1.732065015256509 -2.4334937954883435 Z" fill="#bfe4ff" transform="matrix(1,0,0,1,0,0)" fill-rule="nonzero"></path></g><g clip-path="url(#SvgjsClipPath1000c75c93e3-6d70-4466-9168-595f4892058e)"><path d=" M 0.29108669132195075 -0.46866650223113204 C 0.18796929398924012 -0.4490375064824592 0.0831351374466045 -0.4398581872199716 -0.021824415999801117 -0.4412678847422118 C -0.8701544763843111 -0.4543228000233763 -1.5478292615390645 -1.15160848079443 -1.536684529163086 -1.99996578588778 C -1.5357034002331018 -2.06997867716762 -1.5916353200035982 -2.1275457034636682 -1.6616474190435866 -2.1285818247668047 C -1.7317056537522701 -2.1295631298970177 -1.7893189107699614 -2.0736128778519403 -1.790389428577738 -2.003555949558742 C -1.8033210061108036 -1.0151907679524457 -1.013748587751211 -0.20287961068712468 -0.025414579670756554 -0.18775194131024264 C 0.09683099757332747 -0.18595050955973358 0.21894129668355866 -0.19662935701043782 0.33901852559567347 -0.21962251705597602 C 0.3720751835153213 -0.22590914744106705 0.40127442369600796 -0.24508460513734764 0.42017886154314343 -0.27292138986725467 C 0.4390832993902789 -0.3007581745971617 0.4461406603847369 -0.3349705621312924 0.4397950496928402 -0.36801594878907373 C 0.4335141751815681 -0.40113170147298094 0.4142869351093945 -0.43037567149365774 0.386373396637429 -0.4492684434031018 C 0.3584598581654732 -0.4681612153125463 0.324164768927262 -0.47514286250406856 0.29108669132195075 -0.46866650223113204 Z" fill="#80caff" transform="matrix(1,0,0,1,0,0)" fill-rule="nonzero"></path></g><g clip-path="url(#SvgjsClipPath1000c75c93e3-6d70-4466-9168-595f4892058e)"><path d=" M -1.5738458724239222 -2.396899320175547 C -1.5037074400263357 -2.3969340938200743 -1.44686744344133 -2.453802284847825 -1.446867452061471 -2.523940725865554 C -1.4469022049030569 -2.5940545708457625 -1.5037320274437687 -2.650884393386435 -1.5738458724239426 -2.6509191462280017 C -1.64398431344165 -2.6509191548481432 -1.7008525044693945 -2.5940791582631424 -1.7008872781139281 -2.523940725865554 C -1.7008872781139486 -2.4902472501841686 -1.6875025970148536 -2.4579337715467284 -1.6636777118788044 -2.4341088864106766 C -1.6398528267427652 -2.4102840012746256 -1.6075393481053166 -2.396899320175546 -1.5738458724239324 -2.396899320175547 Z" fill="#80caff" transform="matrix(1,0,0,1,0,0)" fill-rule="nonzero"></path></g><g clip-path="url(#SvgjsClipPath1000c75c93e3-6d70-4466-9168-595f4892058e)"><path d=" M 0.5802523301533036 -2.0015404190767985 C 0.6503907625508902 -2.001575192721326 0.7072307591358857 -2.0584433837490774 0.7072307505157545 -2.1285818247668065 C 0.7071959976741589 -2.198695669747014 0.6503661751334571 -2.2555254922876875 0.5802523301532729 -2.255560245129254 C 0.5101138891355861 -2.2555602537493953 0.45324569810784165 -2.1987202571643945 0.4532109244633076 -2.1285818247668065 C 0.4532109244632876 -2.09488834908542 0.46659560556238233 -2.062574870447981 0.4904204906984315 -2.038749985311929 C 0.5142453758344705 -2.014925100175878 0.5465588544719191 -2.0015404190767976 0.5802523301533036 -2.0015404190767985 Z" fill="#bfe4ff" transform="matrix(1,0,0,1,0,0)" fill-rule="nonzero"></path></g><g clip-path="url(#SvgjsClipPath1000c75c93e3-6d70-4466-9168-595f4892058e)"><path d=" M -1.4250115433978925 -2.864124480021097 C -1.4016015058475872 -2.846160119655678 -1.3726111322330183 -2.8370170018233942 -1.3431306175689186 -2.838300495721195 C -1.305403546559225 -2.839692134143641 -1.2702895244363446 -2.8579310830935776 -1.2474559050041885 -2.887995919166617 C -0.9704990092588294 -3.2532501358350743 -0.54471358989213 -3.475511557198552 -0.08669930338734155 -3.493914770300911 C -0.05307941012811224 -3.4952730201282387 -0.02137981487248819 -3.5099457279219877 0.001411558556464465 -3.5346984118689297 C 0.024202931985416898 -3.5594510958158727 0.036214854580477684 -3.5922514983887326 0.03479939347732364 -3.6258690315406557 C 0.031935308689470254 -3.6958620928343695 -0.02709642901079845 -3.750298714371718 -0.09709188243485811 -3.74749369906044 C -0.630644854478672 -3.726126293857023 -1.1266576734313078 -3.467179274618087 -1.4491979091812166 -3.0416171330872555 C -1.469544687840255 -3.0148791262541152 -1.478428163691271 -2.9811495955179206 -1.473891618875164 -2.947857972362243 C -1.469355074059057 -2.9145663492065648 -1.451770637557616 -2.8844435176695686 -1.4250115433978925 -2.864124480021096 Z" fill="#bfe4ff" transform="matrix(1,0,0,1,0,0)" fill-rule="nonzero"></path></g><g clip-path="url(#SvgjsClipPath1000c75c93e3-6d70-4466-9168-595f4892058e)"><path d=" M 0.6172247174314545 -1.8559813270839343 C 0.602937951341489 -1.8617687075323035 0.5876676488019923 -1.8647414975224843 0.5722531935530975 -1.8647362876148776 C 0.5233813730984127 -1.8648146327743593 0.4793724007653446 -1.8351677953216565 0.46108409040838394 -1.7898467331451602 C 0.43837810258220067 -1.728350547876059 0.4004559316563876 -1.6736126028711649 0.35085976717709544 -1.6307457957267375 C 0.31654622554272027 -1.5990813063407963 0.2781138207459497 -1.5721955722244219 0.23660438298192688 -1.5508174150521619 C 0.17677276447055612 -1.5198710913602684 0.11143054571956812 -1.5010153774003556 0.04431017793899006 -1.4953273414711523 C 0.012470765890894464 -1.4928784001392073 -0.017041806231799628 -1.4777134784638513 -0.037570747889983824 -1.4532531426605795 C -0.05819691348609046 -1.4290674986721772 -0.06826963480721471 -1.3976242740075957 -0.06553623332694825 -1.3659554786613985 C -0.06437592700606798 -1.350255261501875 -0.060093227883860845 -1.3349446121399722 -0.05293916781479613 -1.3209209694554702 C -0.032434757367598266 -1.2809954499415408 0.00868608954163852 -1.2558998177651208 0.053569021090426716 -1.255920111412789 C 0.05697022877869706 -1.255920111412789 0.06043442179452252 -1.255920111412789 0.06377264415525818 -1.256361008705714 C 0.16222000004778359 -1.264617670341254 0.258068697000037 -1.2922292869264282 0.3458209409722346 -1.3376120812590648 C 0.4066370132719279 -1.3688730323338376 0.4629163316416518 -1.4082643172921645 0.5131099709735523 -1.454701805194477 C 0.5885807337908306 -1.5215378824225598 0.6467920331941333 -1.60561366786364 0.6827924434221804 -1.6997777147333055 C 0.7076279625183606 -1.7610171377470245 0.678329339247493 -1.8308159712837613 0.6172247174314647 -1.8559813270839343 Z" fill="#80caff" transform="matrix(1,0,0,1,0,0)" fill-rule="nonzero"></path></g><g clip-path="url(#SvgjsClipPath1000c75c93e3-6d70-4466-9168-595f4892058e)"><path d=" M -0.2897010141156102 -1.5465973981055918 C -0.31864888454535545 -1.566704228174511 -0.34549099750172774 -1.5896846220499068 -0.3698183507728634 -1.6151884198192352 C -0.5656746527803214 -1.8211671654124035 -0.5578129509196565 -2.146821962558038 -0.35224544438341554 -2.343109850438677 C -0.30436627681611794 -2.388808308968252 -0.3025344352999233 -2.4646465477383472 -0.3481513980919697 -2.5126033669046226 C -0.3708423652753925 -2.536336421787365 -0.40223617303814474 -2.5497811611988097 -0.4350711501257942 -2.5498276954930166 C -0.465774030598207 -2.5498584415295324 -0.49531426541192225 -2.538087447199178 -0.5175819292303578 -2.5169493545063126 C -0.8187330313541802 -2.2291274798386636 -0.8302263725315193 -1.7519002913943003 -0.543279942875132 -1.4499149202998605 C -0.5077680648225433 -1.412650545168665 -0.4685572852712343 -1.3790955723556584 -0.42625320426729285 -1.349768249478287 C -0.40623469704212445 -1.3357857860218765 -0.3823952973482607 -1.3283084835348706 -0.35797710919144143 -1.3283532381076366 L -0.35797710919144143 -1.3283532381076366 C -0.31858216690157826 -1.3282745405734162 -0.2816719815441746 -1.3475893791139786 -0.25927910090376005 -1.3800012067074405 C -0.24110151777971045 -1.406182424174434 -0.2341189904205072 -1.4385332895691807 -0.2398796200150568 -1.4698812691366134 C -0.2456200868741205 -1.5010627602086912 -0.2635497165986562 -1.528671216598684 -0.2897010141156102 -1.5465973981055927 Z" fill="#bfe4ff" transform="matrix(1,0,0,1,0,0)" fill-rule="nonzero"></path></g><g clip-path="url(#SvgjsClipPath1000c75c93e3-6d70-4466-9168-595f4892058e)"><path d=" M 0.3143282771918696 -2.367800098842487 C 0.33645535560097395 -2.3468770817086 0.3657562870324891 -2.3352243266700654 0.39620920302081286 -2.335236684493586 C 0.42930220320104695 -2.3353005361974497 0.46091383805286545 -2.348965508035408 0.48363283767512755 -2.373027881030028 C 0.5289393338512416 -2.421331115730551 0.5265719598169927 -2.4971998169231533 0.47834207016003694 -2.5425843828235335 C 0.3479134891934379 -2.667553736395256 0.17212585231626165 -2.7338693778469176 -0.00834555590181929 -2.726186612663083 C -0.040118730205322084 -2.726167770690436 -0.07186053503128287 -2.7241904813242046 -0.1033904151909597 -2.7202659918723744 C -0.16908331847405167 -2.7120124797524308 -0.21569206865414836 -2.652131225742326 -0.2075681469764168 -2.5864221708058075 C -0.2040721155521512 -2.558699230674157 -0.19101991776221627 -2.533062575970728 -0.17065874502581058 -2.5139260587834 C -0.14853445017957911 -2.4929910642643964 -0.11923694118998873 -2.4813171337593136 -0.08877781919688754 -2.481299659106937 L -0.08877781919686734 -2.481299659106937 C -0.08376704123992251 -2.481328061303655 -0.07876200524003996 -2.4816435047490266 -0.07378731123739457 -2.482244439020347 C -0.052226509094820406 -2.4849587814368994 -0.030517437774269185 -2.486326116355345 -0.00878645319474436 -2.486338485311796 C 0.11080180307876164 -2.49406450355939 0.2281080192258247 -2.4510293575966706 0.3143282771918594 -2.3678000988424857 Z" fill="#80caff" transform="matrix(1,0,0,1,0,0)" fill-rule="nonzero"></path></g></g></g><defs><linearGradient id="gradient-9dec717e-7bd8-4bac-b14e-d3ece36c1832" x1="0" y1="0" x2="1" y2="1"><stop stop-color="#51a8db" offset="0"></stop><stop stop-color="#3361e1" offset="1"></stop></linearGradient><clipPath id="SvgjsClipPath1001"><path d=" M -1.790578384560423 -3.747556684387999 h 3.581156769120846 v 3.560056684387999 h -3.581156769120846 Z"></path></clipPath><clipPath id="SvgjsClipPath1000c75c93e3-6d70-4466-9168-595f4892058e"><path d=" M -1.790578384560423 -3.747556684387999 L 1.790578384560423 -3.747556684387999 L 1.790578384560423 -0.1875 L -1.790578384560423 -0.1875 Z"></path></clipPath></defs></svg>