<svg width="28" height="28" viewBox="0 0 28 28" fill="none" xmlns="http://www.w3.org/2000/svg">
<g clip-path="url(#clip0_13_30)">
<path d="M26.25 8.75H24.5V7C24.5 6.76794 24.4078 6.54538 24.2437 6.38128C24.0796 6.21719 23.8571 6.125 23.625 6.125C23.3929 6.125 23.1704 6.21719 23.0063 6.38128C22.8422 6.54538 22.75 6.76794 22.75 7V8.75H21C20.7679 8.75 20.5454 8.84219 20.3813 9.00628C20.2172 9.17038 20.125 9.39294 20.125 9.625C20.125 9.85706 20.2172 10.0796 20.3813 10.2437C20.5454 10.4078 20.7679 10.5 21 10.5H22.75V12.25C22.75 12.4821 22.8422 12.7046 23.0063 12.8687C23.1704 13.0328 23.3929 13.125 23.625 13.125C23.8571 13.125 24.0796 13.0328 24.2437 12.8687C24.4078 12.7046 24.5 12.4821 24.5 12.25V10.5H26.25C26.4821 10.5 26.7046 10.4078 26.8687 10.2437C27.0328 10.0796 27.125 9.85706 27.125 9.625C27.125 9.39294 27.0328 9.17038 26.8687 9.00628C26.7046 8.84219 26.4821 8.75 26.25 8.75Z" fill="#7B77A5"/>
<path d="M16.625 5.25H17.5V6.125C17.5 6.35706 17.5922 6.57962 17.7563 6.74372C17.9204 6.90781 18.1429 7 18.375 7C18.6071 7 18.8296 6.90781 18.9937 6.74372C19.1578 6.57962 19.25 6.35706 19.25 6.125V5.25H20.125C20.3571 5.25 20.5796 5.15781 20.7437 4.99372C20.9078 4.82962 21 4.60706 21 4.375C21 4.14294 20.9078 3.92038 20.7437 3.75628C20.5796 3.59219 20.3571 3.5 20.125 3.5H19.25V2.625C19.25 2.39294 19.1578 2.17038 18.9937 2.00628C18.8296 1.84219 18.6071 1.75 18.375 1.75C18.1429 1.75 17.9204 1.84219 17.7563 2.00628C17.5922 2.17038 17.5 2.39294 17.5 2.625V3.5H16.625C16.3929 3.5 16.1704 3.59219 16.0063 3.75628C15.8422 3.92038 15.75 4.14294 15.75 4.375C15.75 4.60706 15.8422 4.82962 16.0063 4.99372C16.1704 5.15781 16.3929 5.25 16.625 5.25Z" fill="#7B77A5"/>
<path d="M23.6797 15.8156L23.4391 15.8594C21.8725 16.2918 20.2192 16.3009 18.6479 15.8858C17.0766 15.4707 15.6435 14.6462 14.4949 13.4964C13.3463 12.3467 12.5232 10.9128 12.1096 9.34115C11.696 7.76947 11.7067 6.1162 12.1406 4.55C12.1621 4.48656 12.1732 4.42009 12.1734 4.35312C12.1844 4.16994 12.1375 3.98795 12.0394 3.83289C11.9412 3.67783 11.7968 3.55755 11.6266 3.48906C11.4451 3.41688 11.2443 3.40916 11.0578 3.46719C9.2178 3.9807 7.54436 4.96718 6.20408 6.32843C4.8638 7.68969 3.90342 9.37825 3.41855 11.226C2.93368 13.0738 2.94122 15.0163 3.44043 16.8603C3.93963 18.7042 4.91309 20.3853 6.2639 21.7361C7.61471 23.0869 9.29576 24.0604 11.1397 24.5596C12.9837 25.0588 14.9262 25.0663 16.774 24.5815C18.6218 24.0966 20.3103 23.1362 21.6716 21.7959C23.0328 20.4556 24.0193 18.7822 24.5328 16.9422C24.5873 16.7714 24.5873 16.588 24.5328 16.4172C24.4712 16.2404 24.3558 16.0874 24.2028 15.9795C24.0498 15.8716 23.8669 15.8143 23.6797 15.8156Z" fill="#7B77A5"/>
</g>
<defs>
<clipPath id="clip0_13_30">
<rect width="28" height="28" fill="white"/>
</clipPath>
</defs>
</svg>
