<svg width="28" height="28" viewBox="0 0 28 28" fill="none" xmlns="http://www.w3.org/2000/svg">
<path d="M14 7.875C10.623 7.875 7.875 10.623 7.875 14C7.875 17.377 10.623 20.125 14 20.125C17.377 20.125 20.125 17.377 20.125 14C20.125 10.623 17.377 7.875 14 7.875ZM14 18.375C11.5835 18.375 9.625 16.4165 9.625 14C9.625 11.5835 11.5835 9.625 14 9.625C16.4165 9.625 18.375 11.5835 18.375 14C18.375 16.4165 16.4165 18.375 14 18.375ZM14 6.125C14.4831 6.125 14.875 5.73305 14.875 5.25V3.5C14.875 3.01695 14.4831 2.625 14 2.625C13.5169 2.625 13.125 3.01695 13.125 3.5V5.25C13.125 5.73305 13.5169 6.125 14 6.125ZM14 21.875C13.5169 21.875 13.125 22.2669 13.125 22.75V24.5C13.125 24.9831 13.5169 25.375 14 25.375C14.4831 25.375 14.875 24.9831 14.875 24.5V22.75C14.875 22.2669 14.4831 21.875 14 21.875ZM20.8052 8.43101L22.0425 7.1937C22.3843 6.85191 22.3843 6.2982 22.0425 5.9564C21.7007 5.6146 21.147 5.6146 20.8052 5.9564L19.5679 7.1937C19.2261 7.5355 19.2261 8.08921 19.5679 8.43101C19.9097 8.77281 20.4634 8.77281 20.8052 8.43101ZM7.1948 19.569L5.95749 20.8064C5.61569 21.1481 5.61569 21.7018 5.95749 22.0436C6.29929 22.3854 6.853 22.3854 7.1948 22.0436L8.4321 20.8064C8.7739 20.4634 8.7739 19.9108 8.4321 19.569C8.09036 19.2272 7.53659 19.226 7.1948 19.569ZM6.125 14C6.125 13.5169 5.73305 13.125 5.25 13.125H3.5C3.01695 13.125 2.625 13.5169 2.625 14C2.625 14.4831 3.01695 14.875 3.5 14.875H5.25C5.73305 14.875 6.125 14.4831 6.125 14ZM24.5 13.125H22.75C22.2669 13.125 21.875 13.5169 21.875 14C21.875 14.4831 22.2669 14.875 22.75 14.875H24.5C24.9831 14.875 25.375 14.4831 25.375 14C25.375 13.5169 24.9831 13.125 24.5 13.125ZM7.19365 8.43101C7.5355 8.77281 8.08921 8.77281 8.43095 8.43101C8.7728 8.08921 8.7728 7.5355 8.43095 7.1937L7.19365 5.9564C6.85185 5.6146 6.2982 5.6146 5.95634 5.9564C5.61455 6.2982 5.61455 6.85191 5.95634 7.1937L7.19365 8.43101ZM20.8064 19.5678C20.4634 19.226 19.9108 19.226 19.569 19.5678C19.2272 19.9096 19.2261 20.4634 19.569 20.8051L20.8064 22.0425C21.1481 22.3843 21.7018 22.3843 22.0436 22.0425C22.3854 21.7007 22.3854 21.1469 22.0436 20.8051L20.8064 19.5678Z" fill="#878715"/>
</svg>
